<svg width="15" height="15" viewBox="0 0 15 15" fill="none" xmlns="http://www.w3.org/2000/svg">
<path fill-rule="evenodd" clip-rule="evenodd" d="M3.64096 15H15V0H9.04551C5.74589 0 2.74968 1.99355 1.40329 5.07097L0 8.32258L3.64096 15ZM14.1466 14.129H4.13401L0.948167 8.28387L2.18078 5.43871C3.39444 2.67097 6.08723 0.890323 9.04551 0.890323H14.1466V14.129Z" fill="#F5A623"/>
<path fill-rule="evenodd" clip-rule="evenodd" d="M9.25059 1.57886H13.421V7.89465H2.36841L3.4344 5.32823C4.44428 2.86207 6.72588 1.57886 9.25059 1.57886ZM12.5795 7.01244V2.48111H9.25059C6.93159 2.48111 5.04273 3.68412 4.20116 5.70918L3.65882 7.01244H12.5795Z" fill="#F5A623"/>
<path d="M12.9555 10.2631H11.5182C11.2753 10.2631 11.0526 10.0915 11.0526 9.86837C11.0526 9.64526 11.2551 9.47363 11.5182 9.47363H12.9555C13.1984 9.47363 13.4211 9.64526 13.4211 9.86837C13.4211 10.0915 13.2186 10.2631 12.9555 10.2631Z" fill="#F5A623"/>
</svg>
