<?xml version="1.0" encoding="iso-8859-1"?>
<!-- Generator: Adobe Illustrator 19.0.0, SVG Export Plug-In . SVG Version: 6.00 Build 0)  -->
<svg version="1.1" id="Capa_1" xmlns="http://www.w3.org/2000/svg" xmlns:xlink="http://www.w3.org/1999/xlink" x="0px" y="0px"
	 viewBox="0 0 511.999 511.999" style="enable-background:new 0 0 511.999 511.999;" xml:space="preserve">
<g>
	<g>
		<path d="M237.263,89.857c-27.671,0-54.061,10.376-74.307,29.218c-20.138,18.742-32.379,44.121-34.467,71.462
			c-0.421,5.507,3.702,10.311,9.208,10.732c0.259,0.019,0.516,0.029,0.772,0.029c5.177,0,9.558-3.992,9.96-9.238
			c3.52-46.095,42.54-82.204,88.833-82.204c5.523,0,9.999-4.477,9.999-9.999C247.263,94.334,242.786,89.857,237.263,89.857z"/>
	</g>
</g>
<g>
	<g>
		<path d="M415.838,168.062c-8.178,0-16.232,1.024-24.064,3.053C377.013,98.437,312.597,45.023,237.262,45.023
			c-39.996,0-78.137,14.998-107.398,42.23c-26.927,25.06-44.085,58.327-48.894,94.454c-12.893,1.243-25.426,5.287-36.682,11.887
			c-20.633,12.098-35.319,31.507-41.354,54.652c-6.035,23.145-2.696,47.253,9.403,67.886c16.141,27.527,45.51,44.254,77.271,44.254
			c0.788,0,1.576-0.01,2.367-0.029c0.25,0.018,0.504,0.028,0.759,0.028h21.622c5.523,0,9.999-4.477,9.999-9.999
			c0-5.523-4.477-9.999-9.999-9.999H93.811c-0.484-0.052-0.972-0.07-1.465-0.051c-25.71,1.009-49.76-12.152-62.758-34.318
			c-9.396-16.025-11.99-34.75-7.303-52.725c4.687-17.975,16.093-33.05,32.118-42.445c10.662-6.254,22.792-9.551,35.104-9.551
			c0.17,0,0.341,0.001,0.508,0.001c5.222,0,9.571-4.023,9.969-9.237c5.441-71.237,65.74-127.038,137.277-127.038
			c69.318,0,128.048,51.786,136.613,120.459c0.384,3.077,2.174,5.802,4.845,7.377c2.672,1.573,5.923,1.82,8.8,0.667
			c9.037-3.625,18.566-5.463,28.318-5.463c41.996,0,76.162,34.166,76.162,76.162s-34.166,76.162-76.162,76.162h-16.165
			c-5.523,0-9.999,4.477-9.999,9.999c0,5.523,4.477,9.999,9.999,9.999h16.165c53.023,0,96.161-43.138,96.161-96.161
			S468.861,168.062,415.838,168.062z"/>
	</g>
</g>
<g>
	<g>
		<path d="M277.585,96.44c-1.86-1.86-4.44-2.93-7.07-2.93s-5.21,1.07-7.07,2.93c-1.86,1.86-2.93,4.44-2.93,7.07
			c0,2.63,1.07,5.21,2.93,7.07c1.86,1.86,4.44,2.93,7.07,2.93c2.629,0,5.21-1.07,7.07-2.93c1.86-1.86,2.93-4.44,2.93-7.07
			C280.515,100.879,279.445,98.299,277.585,96.44z"/>
	</g>
</g>
<g>
	<g>
		<path d="M303.083,379.422c-1.86-1.86-4.44-2.93-7.07-2.93c-2.63,0-5.21,1.07-7.07,2.93c-1.86,1.86-2.93,4.44-2.93,7.07
			c0,2.63,1.07,5.21,2.93,7.07c1.86,1.86,4.44,2.93,7.07,2.93c2.629,0,5.21-1.07,7.07-2.93c1.86-1.86,2.93-4.44,2.93-7.07
			C306.013,383.862,304.943,381.282,303.083,379.422z"/>
	</g>
</g>
<g>
	<g>
		<path d="M354.16,323.987l-89.485-154.992c-1.786-3.094-5.087-5-8.659-5c-3.573,0-6.874,1.906-8.659,5l-89.485,154.992
			c-1.787,3.094-1.787,6.906,0,9.999c1.786,3.094,5.087,5,8.659,5h39.488v117.991c0,5.523,4.477,9.999,9.999,9.999h79.995
			c5.522,0,9.999-4.477,9.999-9.998v-30.987c0-5.523-4.477-9.999-9.999-9.999c-5.523,0-9.999,4.477-9.999,9.999v20.988h-59.996
			V328.986c0-5.523-4.477-9.999-9.999-9.999h-32.168l72.166-124.993l72.166,124.993h-32.168c-5.523,0-9.999,4.477-9.999,9.999
			v17.508c0,5.523,4.477,9.999,9.999,9.999c5.523,0,9.999-4.477,9.999-9.999v-7.509h39.488c3.573,0,6.874-1.906,8.659-5
			C355.947,330.892,355.947,327.081,354.16,323.987z"/>
	</g>
</g>
<g>
</g>
<g>
</g>
<g>
</g>
<g>
</g>
<g>
</g>
<g>
</g>
<g>
</g>
<g>
</g>
<g>
</g>
<g>
</g>
<g>
</g>
<g>
</g>
<g>
</g>
<g>
</g>
<g>
</g>
</svg>
