<svg width="25" height="17" viewBox="0 0 25 17" fill="none" xmlns="http://www.w3.org/2000/svg">
<path d="M14.092 11.398C13.977 11.398 13.8671 11.3355 13.8116 11.2299C13.7326 11.0774 13.7945 10.8911 13.9499 10.8143C14.7994 10.3886 15.2118 9.35488 15.2118 7.64863C15.2118 7.47863 15.3545 7.33926 15.5276 7.33926C15.8187 7.33926 16.1591 7.25863 16.1591 7.02988V5.79238C16.1591 5.48301 16.1591 5.48301 15.8434 5.48301C15.6703 5.48301 15.5276 5.34426 15.5276 5.17363V3.93613C15.5276 3.14051 15.3299 2.57738 14.9383 2.26301C14.5158 1.92176 13.8299 1.83988 12.8989 2.01801C12.7271 2.05301 12.5617 1.94176 12.5282 1.77301C12.4947 1.60551 12.6065 1.44301 12.7777 1.40988C13.9031 1.19238 14.7646 1.31926 15.3394 1.78363C15.8825 2.22113 16.1579 2.94426 16.1579 3.93426V4.88926C16.7895 5.00988 16.7895 5.50676 16.7895 5.79051V7.02801C16.7895 7.43051 16.492 7.83676 15.8383 7.93426C15.7884 9.72801 15.2629 10.8511 14.2347 11.3636C14.1893 11.3861 14.14 11.398 14.092 11.398Z" fill="#F5A623"/>
<path d="M19.1446 11.3981C19.0297 11.3981 18.9198 11.3356 18.8642 11.23C18.7853 11.0775 18.8472 10.8912 19.0025 10.8144C19.852 10.3887 20.2644 9.35187 20.2644 7.63812C20.2644 7.55499 20.2998 7.47499 20.3573 7.41812C20.4185 7.35999 20.4905 7.32812 20.5834 7.32874C20.836 7.33249 21.0432 7.27874 21.1442 7.18312C21.1884 7.14124 21.2099 7.09187 21.2099 7.02937V5.79187C21.2099 5.48249 21.2099 5.48249 20.8941 5.48249C20.7198 5.48249 20.5783 5.34374 20.5783 5.17312V3.93562C20.5783 3.13999 20.3806 2.57687 19.9903 2.26249C19.5684 1.92187 18.8825 1.84062 17.9509 2.01874C17.7792 2.05374 17.6137 1.94249 17.5802 1.77374C17.5467 1.60624 17.6585 1.44374 17.8297 1.41062C18.9545 1.19312 19.8166 1.31999 20.3926 1.78437C20.9352 2.22124 21.2105 2.94437 21.2105 3.93437V4.88937C21.8421 5.00999 21.8421 5.50687 21.8421 5.79062V7.02812C21.8421 7.25249 21.7518 7.46374 21.5882 7.62187C21.4625 7.74249 21.2465 7.87999 20.8909 7.92812C20.8404 9.72624 20.3149 10.8512 19.2874 11.3637C19.2419 11.3862 19.1926 11.3981 19.1446 11.3981Z" fill="#F5A623"/>
<path fill-rule="evenodd" clip-rule="evenodd" d="M4.48567 7.93563C4.63094 9.72313 6.09178 11.6687 7.94736 11.6687C9.80294 11.6687 11.2638 9.72313 11.409 7.93625C12.069 7.84125 12.3684 7.43187 12.3684 7.02875V5.79125C12.3684 5.40375 11.9863 5.125 11.7368 4.98375V4.0425C12.1865 3.465 12.2838 2.83812 12.0103 2.265C11.6421 1.49687 10.6815 1 9.56294 1C8.98504 1 8.11536 1.13563 7.21157 1.76938C4.53115 1.79563 4.15789 2.82375 4.15789 3.93438V4.98375C3.90841 5.125 3.52631 5.40375 3.52631 5.79063V7.02812C3.52631 7.4325 3.82631 7.84063 4.48567 7.93563ZM7.50525 2.32687C8.30041 1.74125 9.06336 1.61875 9.56357 1.61875C10.4244 1.61875 11.1785 1.98375 11.4381 2.52937C11.6187 2.90625 11.529 3.325 11.1779 3.73688C11.1305 3.79312 11.1046 3.8625 11.1046 3.935V5.1725C11.1046 5.29437 11.1779 5.405 11.2916 5.455C11.4937 5.54437 11.7229 5.71875 11.7362 5.79187V7.02938C11.7362 7.25812 11.3958 7.33875 11.1046 7.33875C10.9303 7.33875 10.7888 7.47813 10.7888 7.64813C10.7888 9.18937 9.52125 11.0512 7.94673 11.0512C6.3722 11.0512 5.10462 9.19 5.10462 7.64813C5.10462 7.47813 4.96315 7.33875 4.78883 7.33875C4.49767 7.33875 4.15725 7.2575 4.15725 7.02938V5.79375C4.16989 5.72688 4.37831 5.555 4.60315 5.45625C4.7162 5.40562 4.78946 5.295 4.78946 5.17375V3.93625C4.78946 3.24688 4.78946 2.38937 7.31578 2.38937C7.38462 2.38937 7.45094 2.36625 7.50525 2.32687Z" fill="#F5A623"/>
<path d="M4.48567 7.93563L4.73485 7.91538L4.7187 7.71662L4.52133 7.68818L4.48567 7.93563ZM11.409 7.93625L11.3734 7.6888L11.176 7.71721L11.1599 7.91599L11.409 7.93625ZM11.7368 4.98375H11.4868V5.12949L11.6137 5.2013L11.7368 4.98375ZM11.7368 4.0425L11.5396 3.8889L11.4868 3.95665V4.0425H11.7368ZM12.0103 2.265L12.2359 2.15734L12.2357 2.15693L12.0103 2.265ZM7.21157 1.76938L7.21402 2.01936L7.29159 2.0186L7.3551 1.97407L7.21157 1.76938ZM4.15789 4.98375L4.28106 5.2013L4.40789 5.12949V4.98375H4.15789ZM7.50525 2.32687L7.65199 2.52929L7.65351 2.52817L7.50525 2.32687ZM11.4381 2.52937L11.2123 2.63678L11.2127 2.63743L11.4381 2.52937ZM11.1779 3.73688L10.9876 3.57467L10.9867 3.57584L11.1779 3.73688ZM11.2916 5.455L11.3927 5.22636L11.3922 5.22616L11.2916 5.455ZM11.7362 5.79187H11.9862V5.76939L11.9822 5.74726L11.7362 5.79187ZM4.15725 5.79375L3.9116 5.74735L3.90725 5.77035V5.79375H4.15725ZM4.60315 5.45625L4.70368 5.68515L4.70532 5.68442L4.60315 5.45625ZM7.94736 11.4187C7.1112 11.4187 6.34604 10.9801 5.76406 10.3087C5.18169 9.63691 4.80295 8.75327 4.73485 7.91538L4.2365 7.95587C4.31367 8.90548 4.73798 9.8884 5.38624 10.6363C6.03489 11.3845 6.92794 11.9187 7.94736 11.9187V11.4187ZM11.1599 7.91599C11.0918 8.75357 10.713 9.63705 10.1307 10.3088C9.54868 10.9801 8.78352 11.4187 7.94736 11.4187V11.9187C8.96677 11.9187 9.85983 11.3845 10.5085 10.6363C11.1567 9.88858 11.581 8.90581 11.6582 7.95651L11.1599 7.91599ZM12.1184 7.02875C12.1184 7.28661 11.9323 7.60835 11.3734 7.6888L11.4447 8.1837C12.2058 8.07415 12.6184 7.57714 12.6184 7.02875H12.1184ZM12.1184 5.79125V7.02875H12.6184V5.79125H12.1184ZM11.6137 5.2013C11.7274 5.26573 11.8611 5.35606 11.9634 5.46572C12.066 5.57569 12.1184 5.68415 12.1184 5.79125H12.6184C12.6184 5.51085 12.4798 5.28619 12.329 5.12459C12.1779 4.96269 11.9957 4.84302 11.86 4.7662L11.6137 5.2013ZM11.4868 4.0425V4.98375H11.9868V4.0425H11.4868ZM11.7847 2.37266C12.0101 2.84509 11.9423 3.37175 11.5396 3.8889L11.9341 4.1961C12.4308 3.55825 12.5575 2.83116 12.2359 2.15734L11.7847 2.37266ZM9.56294 1.25C10.6209 1.25 11.4717 1.71973 11.7849 2.37307L12.2357 2.15693C11.8125 1.27402 10.7421 0.75 9.56294 0.75V1.25ZM7.3551 1.97407C8.20818 1.37588 9.02471 1.25 9.56294 1.25V0.75C8.94538 0.75 8.02254 0.895374 7.06804 1.56468L7.3551 1.97407ZM4.40789 3.93438C4.40789 3.40104 4.49892 2.95526 4.85 2.62814C5.20953 2.29314 5.89491 2.03228 7.21402 2.01936L7.20912 1.51939C5.84781 1.53272 5.00635 1.79905 4.50914 2.26233C4.00348 2.73349 3.90789 3.35708 3.90789 3.93438H4.40789ZM4.40789 4.98375V3.93438H3.90789V4.98375H4.40789ZM3.77631 5.79063C3.77631 5.68394 3.8286 5.57566 3.93127 5.4657C4.03363 5.35608 4.16727 5.26573 4.28106 5.2013L4.03471 4.7662C3.89903 4.84302 3.71688 4.96267 3.56582 5.12446C3.41507 5.2859 3.27631 5.51043 3.27631 5.79063H3.77631ZM3.77631 7.02812V5.79063H3.27631V7.02812H3.77631ZM4.52133 7.68818C3.96268 7.60769 3.77631 7.28692 3.77631 7.02812H3.27631C3.27631 7.57808 3.68993 8.07356 4.45002 8.18307L4.52133 7.68818ZM9.56357 1.36875C9.02143 1.36875 8.20347 1.50216 7.357 2.12558L7.65351 2.52817C8.39735 1.98034 9.10529 1.86875 9.56357 1.86875V1.36875ZM11.6638 2.42197C11.3456 1.75311 10.4731 1.36875 9.56357 1.36875V1.86875C10.3757 1.86875 11.0114 2.21439 11.2123 2.63678L11.6638 2.42197ZM11.3681 3.89907C11.7608 3.43847 11.9001 2.91496 11.6635 2.42132L11.2127 2.63743C11.3373 2.89754 11.2973 3.21153 10.9876 3.57468L11.3681 3.89907ZM11.3546 3.935C11.3546 3.9232 11.3585 3.91046 11.3691 3.89791L10.9867 3.57584C10.9025 3.67579 10.8546 3.8018 10.8546 3.935H11.3546ZM11.3546 5.1725V3.935H10.8546V5.1725H11.3546ZM11.3922 5.22616C11.3669 5.21503 11.3546 5.19266 11.3546 5.1725H10.8546C10.8546 5.39609 10.9888 5.59497 11.1909 5.68384L11.3922 5.22616ZM11.9822 5.74726C11.9718 5.68991 11.946 5.64611 11.9298 5.62173C11.9115 5.59415 11.8906 5.56966 11.8712 5.54914C11.8322 5.50797 11.7846 5.4674 11.7358 5.43036C11.6382 5.3563 11.5137 5.27988 11.3927 5.22636L11.1905 5.68364C11.2715 5.71949 11.3628 5.77495 11.4336 5.8287C11.469 5.85557 11.4939 5.87789 11.5079 5.89277C11.5151 5.90028 11.5158 5.90211 11.5133 5.89841C11.513 5.89791 11.4973 5.87556 11.4902 5.83649L11.9822 5.74726ZM11.9862 7.02938V5.79187H11.4862V7.02938H11.9862ZM11.1046 7.58875C11.2675 7.58875 11.4605 7.56694 11.6227 7.50186C11.7779 7.4396 11.9862 7.29871 11.9862 7.02938H11.4862C11.4862 6.98879 11.5243 7.00259 11.4365 7.03782C11.3557 7.07025 11.2329 7.08875 11.1046 7.08875V7.58875ZM11.0388 7.64813C11.0388 7.6206 11.0639 7.58875 11.1046 7.58875V7.08875C10.7967 7.08875 10.5388 7.33565 10.5388 7.64813H11.0388ZM7.94673 11.3012C8.83645 11.3012 9.61247 10.7769 10.1553 10.0815C10.6988 9.38513 11.0388 8.48133 11.0388 7.64813H10.5388C10.5388 8.35617 10.245 9.15393 9.76116 9.77383C9.27656 10.3946 8.63153 10.8012 7.94673 10.8012V11.3012ZM4.85462 7.64813C4.85462 8.48163 5.1946 9.38544 5.73816 10.0817C6.28101 10.7771 7.05703 11.3012 7.94673 11.3012V10.8012C7.2619 10.8012 6.61686 10.3948 6.13229 9.77405C5.64844 9.15425 5.35462 8.3565 5.35462 7.64813H4.85462ZM4.78883 7.58875C4.82953 7.58875 4.85462 7.6206 4.85462 7.64813H5.35462C5.35462 7.33565 5.09677 7.08875 4.78883 7.08875V7.58875ZM3.90725 7.02938C3.90725 7.29853 4.11579 7.43935 4.27064 7.50158C4.43276 7.56673 4.6258 7.58875 4.78883 7.58875V7.08875C4.66071 7.08875 4.53796 7.07014 4.45708 7.03764C4.36893 7.00221 4.40725 6.98834 4.40725 7.02938H3.90725ZM3.90725 5.79375V7.02938H4.40725V5.79375H3.90725ZM4.50262 5.22735C4.36945 5.28584 4.2435 5.3646 4.14705 5.43968C4.09892 5.47716 4.0534 5.51737 4.01643 5.55767C3.99801 5.57774 3.97843 5.60138 3.96126 5.62776C3.94624 5.65085 3.92192 5.69272 3.9116 5.74735L4.40291 5.84015C4.39575 5.87807 4.3807 5.89993 4.38037 5.90043C4.3779 5.90423 4.37843 5.9027 4.38484 5.89571C4.39753 5.88189 4.42054 5.86042 4.45419 5.83422C4.52133 5.78196 4.612 5.72541 4.70368 5.68515L4.50262 5.22735ZM4.53946 5.17375C4.53946 5.19303 4.52726 5.21631 4.50097 5.22808L4.70532 5.68442C4.90514 5.59494 5.03946 5.39697 5.03946 5.17375H4.53946ZM4.53946 3.93625V5.17375H5.03946V3.93625H4.53946ZM7.31578 2.13937C6.04217 2.13937 5.32324 2.3517 4.9329 2.7232C4.52951 3.10713 4.53946 3.60479 4.53946 3.93625H5.03946C5.03946 3.57833 5.04942 3.30256 5.27761 3.08539C5.51884 2.8558 6.06307 2.63937 7.31578 2.63937V2.13937ZM7.35852 2.12447C7.34417 2.13487 7.32867 2.13937 7.31578 2.13937V2.63937C7.44057 2.63937 7.5577 2.59763 7.65199 2.52928L7.35852 2.12447Z" fill="#F5A623"/>
<path d="M1.31579 15.9999C1.14147 15.9999 1 15.8605 1 15.6905V15.0718C1 13.2799 2.46084 11.978 4.47368 11.978H5.25242L6.15747 10.6549C6.25474 10.513 6.45116 10.4749 6.59579 10.5687C6.74042 10.663 6.77958 10.8568 6.68232 10.998L5.68316 12.4587C5.62442 12.5443 5.52589 12.5955 5.42042 12.5955H4.47305C2.8 12.5955 1.63095 13.6137 1.63095 15.0705V15.6893C1.63158 15.8605 1.49011 15.9999 1.31579 15.9999Z" fill="#F5A623" stroke="#F5A623" stroke-width="0.5"/>
<path d="M14.5789 16C14.4052 16 14.2631 15.8606 14.2631 15.6906V15.0719C14.2631 13.6144 13.1156 12.5969 11.4728 12.5969H10.5255C10.4212 12.5969 10.324 12.5469 10.2652 12.4625L9.24019 11.0025C9.14166 10.8612 9.17766 10.6687 9.32166 10.5725C9.46566 10.4769 9.66209 10.5112 9.76061 10.6531L10.6916 11.9794H11.4728C13.4869 11.9794 14.8947 13.2525 14.8947 15.0731V15.6919C14.8947 15.8606 14.7526 16 14.5789 16Z" fill="#F5A623" stroke="#F5A623" stroke-width="0.5"/>
<path d="M19.6316 16C19.4579 16 19.3158 15.8606 19.3158 15.6906V15.0719C19.3158 13.6144 18.1689 12.5969 16.5255 12.5969H15.5781C15.4739 12.5969 15.3773 12.5469 15.3179 12.4625L14.2929 11.0025C14.1943 10.8612 14.2303 10.6687 14.3743 10.5725C14.519 10.4769 14.7148 10.5112 14.8133 10.6531L15.7449 11.9794H16.5255C18.5396 11.9794 19.9474 13.2525 19.9474 15.0731V15.6919C19.9474 15.8606 19.8053 16 19.6316 16Z" fill="#F5A623"/>
<path d="M24.6842 16C24.5105 16 24.3684 15.8606 24.3684 15.6906V15.0719C24.3684 13.6144 23.2215 12.5969 21.5781 12.5969H20.6307C20.5265 12.5969 20.4299 12.5469 20.3705 12.4625L19.3455 11.0025C19.247 10.8612 19.283 10.6687 19.427 10.5725C19.5716 10.4769 19.7674 10.5112 19.8659 10.6531L20.7975 11.9794H21.5781C23.5922 11.9794 25 13.2525 25 15.0731V15.6919C25 15.8606 24.8579 16 24.6842 16Z" fill="#F5A623"/>
</svg>
