<svg width="28" height="19" viewBox="0 0 28 19" fill="none" xmlns="http://www.w3.org/2000/svg">
<path fill-rule="evenodd" clip-rule="evenodd" d="M8.91123 8.14801V11.0763H13.6666C13.475 12.3331 12.2292 14.7612 8.91123 14.7612C6.0484 14.7612 3.71262 12.3453 3.71262 9.36815C3.71262 6.391 6.0484 3.97512 8.91123 3.97512C10.5403 3.97512 11.6303 4.6828 12.2532 5.29287L14.5291 3.06001C13.0677 1.66905 11.1751 0.827148 8.91123 0.827148C4.2756 0.827148 0.526367 4.6462 0.526367 9.36815C0.526367 14.0901 4.2756 17.9091 8.91123 17.9091C13.7505 17.9091 16.9607 14.4439 16.9607 9.56337C16.9607 9.00211 16.9008 8.57506 16.8289 8.14801H8.91123Z" fill="#EBCB80"/>
<path fill-rule="evenodd" clip-rule="evenodd" d="M26.8789 8.14805H24.4832V5.70776H22.0876V8.14805H19.6919V10.5883H22.0876V13.0286H24.4832V10.5883H26.8789" fill="#EBCB80"/>
</svg>
