<svg width="20" height="19" viewBox="0 0 20 19" fill="none" xmlns="http://www.w3.org/2000/svg">
<mask id="mask0" mask-type="alpha" maskUnits="userSpaceOnUse" x="0" y="0" width="20" height="19">
<path fill-rule="evenodd" clip-rule="evenodd" d="M0.675781 18.7155H19.1284V0.827148H0.675781V18.7155Z" fill="white"/>
</mask>
<g mask="url(#mask0)">
<path fill-rule="evenodd" clip-rule="evenodd" d="M16.4005 16.0954H13.6643V11.9369C13.6643 10.9454 13.6463 9.66977 12.2418 9.66977C10.8179 9.66977 10.6005 10.7503 10.6005 11.8662V16.0954H7.86688V7.54448H10.4903V8.71364H10.5277C10.8927 8.04121 11.7861 7.33244 13.1178 7.33244C15.8884 7.33244 16.4005 9.10286 16.4005 11.4058V16.0954ZM4.78059 6.37631C3.9015 6.37631 3.1931 5.68596 3.1931 4.83485C3.1931 3.98423 3.9015 3.29388 4.78059 3.29388C5.65609 3.29388 6.36705 3.98423 6.36705 4.83485C6.36705 5.68596 5.65609 6.37631 4.78059 6.37631ZM3.41044 16.0954H6.14971V7.54448H3.41044V16.0954ZM17.7634 0.827148H2.03722C1.28627 0.827148 0.675781 1.40551 0.675781 2.11925V17.4522C0.675781 18.166 1.28627 18.7453 2.03722 18.7453H17.7634C18.5164 18.7453 19.1284 18.166 19.1284 17.4522V2.11925C19.1284 1.40551 18.5164 0.827148 17.7634 0.827148Z" fill="#EBCB80"/>
</g>
</svg>
