<svg xmlns="http://www.w3.org/2000/svg" width="57" height="52" viewBox="0 0 57 52">
  <defs>
    <linearGradient id="21+-a" x1="7.732%" x2="89.568%" y1="10.471%" y2="87.034%">
      <stop offset="0%" stop-color="#002b5a"/>
      <stop offset="100%" stop-color="#002b5a"/>
    </linearGradient>
  </defs>
  <path fill="url(#21+-a)" fill-rule="evenodd" d="M50.4000907,35 C46.7383436,44.9237537 37.1953523,52 26,52 C11.6407891,52 7.10542736e-15,40.3592109 7.10542736e-15,26 C7.10542736e-15,11.6408906 11.6407891,0 26,0 C37.1887666,0.0126677233 46.7234453,7.0836618 50.3911983,17 L48.5429781,17 C44.9682147,8.05375242 36.2223434,1.73326563 26,1.73326563 C12.5977109,1.73326563 1.73326562,12.5977109 1.73326562,26 C1.73326562,39.4022891 12.5977109,50.2666328 26,50.2666328 C36.2156908,50.2548602 44.9538861,43.9390868 48.5338985,35 L50.4000907,35 Z M14.403,32.244 L20.279,26.602 C20.8510029,26.0473306 21.3363313,25.5620021 21.735,25.146 C22.1336687,24.7299979 22.4499988,24.3486684 22.684,24.002 C22.9180012,23.6553316 23.0869995,23.3346681 23.191,23.04 C23.2950005,22.7453319 23.347,22.4420016 23.347,22.13 C23.347,21.3326627 23.0956692,20.6913358 22.593,20.206 C22.0903308,19.7206642 21.3970044,19.478 20.513,19.478 C19.6289956,19.478 18.9356692,19.7293308 18.433,20.232 C17.9303308,20.7346692 17.679,21.4539953 17.679,22.39 L14.403,22.39 C14.403,21.5059956 14.5416653,20.7043369 14.819,19.985 C15.0963347,19.2656631 15.4993307,18.6546692 16.028,18.152 C16.5566693,17.6493308 17.1979962,17.2593347 17.952,16.982 C18.7060038,16.7046653 19.5596619,16.566 20.513,16.566 C21.4663381,16.566 22.3199962,16.700332 23.074,16.969 C23.8280038,17.237668 24.4693307,17.6189975 24.998,18.113 C25.5266693,18.6070025 25.9296653,19.1963299 26.207,19.881 C26.4843347,20.5656701 26.623,21.3153293 26.623,22.13 C26.623,23.1526718 26.29367,24.1579951 25.635,25.146 C24.97633,26.1340049 23.9536736,27.2606603 22.567,28.526 L18.485,32.244 L26.623,32.244 L26.623,35 L14.403,35 L14.403,32.244 Z M28.3715,19.244 L32.0115,16.8 L35.1315,16.8 L35.1315,35 L32.0115,35 L32.0115,20.024 L28.3715,22.442 L28.3715,19.244 Z M44.5385,24.34 L49.0105,24.34 L49.0105,19.738 L52.0265,19.738 L52.0265,24.34 L56.4985,24.34 L56.4985,27.096 L52.0265,27.096 L52.0265,31.698 L49.0105,31.698 L49.0105,27.096 L44.5385,27.096 L44.5385,24.34 Z"/>
</svg>
