<svg width="24" height="20" viewBox="0 0 24 20" fill="none" xmlns="http://www.w3.org/2000/svg">
<mask id="path-1-outside-1" maskUnits="userSpaceOnUse" x="0.609863" y="0.731689" width="24" height="19" fill="black">
<rect fill="white" x="0.609863" y="0.731689" width="24" height="19"/>
<path fill-rule="evenodd" clip-rule="evenodd" d="M20.5753 4.10207C20.1616 3.64264 19.4538 3.60555 18.9944 4.01922L8.51003 13.4594L5.61141 9.74929C5.23079 9.26212 4.52731 9.17574 4.04014 9.55636C3.55297 9.93698 3.4666 10.6405 3.84721 11.1276L6.99285 15.1539C6.93914 15.4782 7.02816 15.8231 7.26526 16.0864C7.67893 16.5459 8.38673 16.583 8.84616 16.1693L20.4924 5.68297C20.9518 5.2693 20.9889 4.56151 20.5753 4.10207Z"/>
</mask>
<path fill-rule="evenodd" clip-rule="evenodd" d="M20.5753 4.10207C20.1616 3.64264 19.4538 3.60555 18.9944 4.01922L8.51003 13.4594L5.61141 9.74929C5.23079 9.26212 4.52731 9.17574 4.04014 9.55636C3.55297 9.93698 3.4666 10.6405 3.84721 11.1276L6.99285 15.1539C6.93914 15.4782 7.02816 15.8231 7.26526 16.0864C7.67893 16.5459 8.38673 16.583 8.84616 16.1693L20.4924 5.68297C20.9518 5.2693 20.9889 4.56151 20.5753 4.10207Z" fill="#82C141"/>
<path d="M18.9944 4.01922L20.8549 6.08553L18.9944 4.01922ZM20.5753 4.10207L18.5089 5.96258L20.5753 4.10207ZM8.51003 13.4594L6.31898 15.1712L8.1547 17.5208L10.3705 15.5257L8.51003 13.4594ZM5.61141 9.74929L7.80246 8.03745L7.80246 8.03745L5.61141 9.74929ZM4.04014 9.55636L5.75198 11.7474L4.04014 9.55636ZM3.84721 11.1276L1.65616 12.8395H1.65616L3.84721 11.1276ZM6.99285 15.1539L9.73599 15.6081L9.93537 14.4039L9.1839 13.442L6.99285 15.1539ZM7.26526 16.0864L9.33156 14.2259H9.33156L7.26526 16.0864ZM8.84616 16.1693L10.7067 18.2356H10.7067L8.84616 16.1693ZM20.4924 5.68297L18.6319 3.61666L18.6319 3.61667L20.4924 5.68297ZM20.8549 6.08553C20.1731 6.69938 19.1228 6.64435 18.5089 5.96258L22.6416 2.24157C21.2004 0.640937 18.7345 0.511719 17.1338 1.95292L20.8549 6.08553ZM10.3705 15.5257L20.8549 6.08553L17.1338 1.95292L6.64952 11.393L10.3705 15.5257ZM3.42035 11.4611L6.31898 15.1712L10.7011 11.7475L7.80246 8.03745L3.42035 11.4611ZM5.75198 11.7474C5.02906 12.3122 3.98516 12.184 3.42035 11.4611L7.80246 8.03745C6.47642 6.34019 4.02556 6.03926 2.3283 7.3653L5.75198 11.7474ZM6.03827 9.41579C6.60307 10.1387 6.4749 11.1826 5.75198 11.7474L2.3283 7.3653C0.631047 8.69134 0.330119 11.1422 1.65616 12.8395L6.03827 9.41579ZM9.1839 13.442L6.03827 9.41579L1.65616 12.8395L4.80179 16.8657L9.1839 13.442ZM9.33156 14.2259C9.68426 14.6176 9.81449 15.1339 9.73599 15.6081L4.24971 14.6997C4.0638 15.8225 4.37206 17.0286 5.19896 17.947L9.33156 14.2259ZM6.98565 14.103C7.6674 13.4891 8.7177 13.5442 9.33156 14.2259L5.19895 17.947C6.64017 19.5476 9.10605 19.6768 10.7067 18.2356L6.98565 14.103ZM18.6319 3.61667L6.98565 14.103L10.7067 18.2356L22.3529 7.74928L18.6319 3.61667ZM18.5089 5.96258C17.8951 5.28083 17.9501 4.23053 18.6319 3.61666L22.3529 7.74928C23.9535 6.30807 24.0828 3.84218 22.6416 2.24157L18.5089 5.96258Z" fill="#FAFAFA" mask="url(#path-1-outside-1)"/>
</svg>
