<svg width="24" height="19" viewBox="0 0 24 19" fill="none" xmlns="http://www.w3.org/2000/svg">
<mask id="mask0" mask-type="alpha" maskUnits="userSpaceOnUse" x="0" y="0" width="24" height="19">
<path fill-rule="evenodd" clip-rule="evenodd" d="M0.586914 18.7406H23.0991V0.893311H0.586914V18.7406Z" fill="white"/>
</mask>
<g mask="url(#mask0)">
<path fill-rule="evenodd" clip-rule="evenodd" d="M23.0991 3.00661C22.2706 3.36506 21.3803 3.60731 20.4458 3.71627C21.3997 3.15847 22.1321 2.27526 22.477 1.22291C21.5845 1.73932 20.5958 2.1144 19.5435 2.31656C18.7008 1.44066 17.5002 0.893311 16.1715 0.893311C13.6202 0.893311 11.5517 2.91115 11.5517 5.40001C11.5517 5.75324 11.5927 6.09722 11.6714 6.42706C7.83199 6.23912 4.42803 4.44489 2.14956 1.71827C1.75191 2.38389 1.52409 3.15807 1.52409 3.984C1.52409 5.54754 2.33973 6.927 3.57929 7.73516C2.82196 7.71178 2.10969 7.50906 1.48678 7.1715C1.48645 7.19031 1.48645 7.20919 1.48645 7.22815C1.48645 9.41176 3.07885 11.2333 5.19219 11.6473C4.80451 11.7503 4.39641 11.8053 3.97504 11.8053C3.67738 11.8053 3.38796 11.7771 3.10595 11.7245C3.69377 13.515 5.39983 14.818 7.42133 14.8544C5.8403 16.0631 3.84836 16.7836 1.68404 16.7836C1.31119 16.7836 0.943438 16.7623 0.582031 16.7207C2.62643 17.9994 5.05473 18.7454 7.66356 18.7454C16.1607 18.7454 20.8073 11.8781 20.8073 5.92261C20.8073 5.7272 20.8029 5.53283 20.794 5.33959C21.6965 4.70418 22.4798 3.91039 23.0991 3.00661Z" fill="#EBCB80"/>
</g>
</svg>
