<svg xmlns="http://www.w3.org/2000/svg" width="56" height="52" viewBox="0 0 56 52">
  <defs>
    <linearGradient id="3+-a" x1="7.732%" x2="89.568%" y1="10.471%" y2="87.034%">
      <stop offset="0%" stop-color="#002b5a"/>
      <stop offset="100%" stop-color="#002b5a"/>
    </linearGradient>
  </defs>
  <path fill="url(#3+-a)" fill-rule="evenodd" d="M50.4000907,35 C46.7383436,44.9237537 37.1953523,52 26,52 C11.6407891,52 7.10542736e-15,40.3592109 7.10542736e-15,26 C7.10542736e-15,11.6408906 11.6407891,0 26,0 C37.1887666,0.0126677233 46.7234453,7.0836618 50.3911983,17 L48.5429781,17 C44.9682147,8.05375242 36.2223434,1.73326563 26,1.73326563 C12.5977109,1.73326563 1.73326562,12.5977109 1.73326562,26 C1.73326562,39.4022891 12.5977109,50.2666328 26,50.2666328 C36.2156908,50.2548602 44.9538861,43.9390868 48.5338985,35 L50.4000907,35 Z M25.97225,35.234 C23.9269064,35.234 22.3409223,34.6836722 21.21425,33.583 C20.0875777,32.4823278 19.5069168,30.9180101 19.47225,28.89 L22.74825,28.89 C22.7829168,30.086006 23.068914,30.9569973 23.60625,31.503 C24.143586,32.0490027 24.9322448,32.322 25.97225,32.322 C27.046922,32.322 27.852914,32.0750025 28.39025,31.581 C28.927586,31.0869975 29.19625,30.4240042 29.19625,29.592 C29.19625,28.8466629 28.9405859,28.2313358 28.42925,27.746 C27.9179141,27.2606642 27.1595884,27.018 26.15425,27.018 L23.76225,27.018 L23.76225,24.262 L26.15425,24.262 C26.9862542,24.262 27.6362477,24.0453355 28.10425,23.612 C28.5722523,23.1786645 28.80625,22.6153368 28.80625,21.922 C28.80625,21.1939964 28.567919,20.6046689 28.09125,20.154 C27.6145809,19.7033311 26.9082547,19.478 25.97225,19.478 C24.238908,19.478 23.2942508,20.448657 23.13825,22.39 L19.86225,22.39 C19.8969168,20.5699909 20.4472447,19.1443385 21.51325,18.113 C22.5792553,17.0816615 24.0655738,16.566 25.97225,16.566 C26.9775884,16.566 27.8615795,16.6916654 28.62425,16.943 C29.3869205,17.1943346 30.0239141,17.5453311 30.53525,17.996 C31.0465859,18.4466689 31.4322487,18.9883302 31.69225,19.621 C31.9522513,20.2536698 32.08225,20.9513295 32.08225,21.714 C32.08225,22.5460042 31.9002518,23.2999966 31.53625,23.976 C31.1722482,24.6520034 30.6089205,25.1979979 29.84625,25.614 C30.7302544,26.0473355 31.3889145,26.6323296 31.82225,27.369 C32.2555855,28.1056704 32.47225,28.9246622 32.47225,29.826 C32.47225,30.6233373 32.3335847,31.3556633 32.05625,32.023 C31.7789153,32.6903367 31.3672527,33.2623309 30.82125,33.739 C30.2752473,34.2156691 29.599254,34.5839987 28.79325,34.844 C27.987246,35.1040013 27.046922,35.234 25.97225,35.234 Z M43.46925,24.34 L47.94125,24.34 L47.94125,19.738 L50.95725,19.738 L50.95725,24.34 L55.42925,24.34 L55.42925,27.096 L50.95725,27.096 L50.95725,31.698 L47.94125,31.698 L47.94125,27.096 L43.46925,27.096 L43.46925,24.34 Z"/>
</svg>
