<svg xmlns="http://www.w3.org/2000/svg" width="52" height="52" viewBox="0 0 52 52">
  <defs>
    <linearGradient id="24-a" x1="7.732%" x2="89.568%" y1="10.471%" y2="87.034%">
      <stop offset="0%" stop-color="#002b5a"/>
      <stop offset="100%" stop-color="#002b5a"/>
    </linearGradient>
  </defs>
  <path fill="url(#24-a)" fill-rule="evenodd" d="M39.5228487,14.3897059 L49.4589227,16.9899782 L51.9666581,7.09084974 C52.1128239,6.51394004 51.7649307,5.92747929 51.187063,5.7762544 L51.1737388,5.77280541 C50.5917406,5.62065194 49.9960185,5.96687736 49.8430575,6.54630747 L48.3186432,12.3207106 C43.6602591,4.83866006 35.3045608,-0.113689864 25.789263,0.00198391325 C11.4571572,0.176025193 -0.00013324135,11.7304029 0,26.000196 C0.00013324135,40.3583363 11.6935274,52 26.1153046,52 C35.3258794,52 43.4146953,47.2576404 48.064019,40.0885193 C48.4032514,39.5654669 48.2240418,38.8653221 47.6744213,38.5685765 C47.1824942,38.3028717 46.5677186,38.4579435 46.2640616,38.9260774 C42.0392448,45.4388295 34.7185653,49.7771267 26.3765909,49.8660045 C13.0964255,50.0074131 2.15824339,39.2517415 2.14225443,26.0295124 C2.12626546,12.8356712 12.8665842,2.13279571 26.1153046,2.13279571 C34.9946414,2.13279571 42.7542179,6.94042077 46.8904292,14.0928276 L40.0795311,12.2920575 C39.4967334,12.1380469 38.8991459,12.4844049 38.7459184,13.0650289 C38.5930906,13.6443264 38.9408505,14.2374198 39.5228487,14.3897059 M14.97,31.468 L19.942,26.694 C20.4260024,26.2246643 20.836665,25.8140018 21.174,25.462 C21.511335,25.1099982 21.778999,24.7873348 21.977,24.494 C22.175001,24.2006652 22.3179996,23.9293346 22.406,23.68 C22.4940004,23.4306654 22.538,23.1740013 22.538,22.91 C22.538,22.23533 22.3253355,21.6926687 21.9,21.282 C21.4746645,20.8713313 20.8880037,20.666 20.14,20.666 C19.3919963,20.666 18.8053355,20.8786645 18.38,21.304 C17.9546645,21.7293355 17.742,22.337996 17.742,23.13 L14.97,23.13 C14.97,22.3819963 15.0873322,21.7036697 15.322,21.095 C15.5566678,20.4863303 15.8976644,19.9693355 16.345,19.544 C16.7923356,19.1186645 17.3349968,18.7886678 17.973,18.554 C18.6110032,18.3193322 19.3333293,18.202 20.14,18.202 C20.9466707,18.202 21.6689968,18.3156655 22.307,18.543 C22.9450032,18.7703345 23.4876644,19.0929979 23.935,19.511 C24.3823356,19.9290021 24.7233322,20.4276638 24.958,21.007 C25.1926678,21.5863362 25.31,22.2206632 25.31,22.91 C25.31,23.7753377 25.0313361,24.6259958 24.474,25.462 C23.9166639,26.2980042 23.0513392,27.251328 21.878,28.322 L18.424,31.468 L25.31,31.468 L25.31,33.8 L14.97,33.8 Z M26.8995,28.234 L33.3235,18.4 L36.7995,18.4 L36.7995,28.234 L38.5595,28.234 L38.5595,30.566 L36.7995,30.566 L36.7995,33.8 L34.1595,33.8 L34.1595,30.566 L26.8995,30.566 Z M34.1595,28.234 L34.1595,21.326 L29.7375,28.234 Z"/>
</svg>
