<svg xmlns="http://www.w3.org/2000/svg" width="52" height="52" viewBox="0 0 52 52">
  <defs>
    <linearGradient id="icon-number-2-a" x1="7.732%" x2="89.568%" y1="10.471%" y2="87.034%">
      <stop offset="0%" stop-color="#01C6DB"/>
      <stop offset="100%" stop-color="#662D90"/>
    </linearGradient>
  </defs>
  <path fill="url(#icon-number-2-a)" fill-rule="evenodd" d="M19.60075,32.244 L25.47675,26.602 C26.0487529,26.0473306 26.5340813,25.5620021 26.93275,25.146 C27.3314187,24.7299979 27.6477488,24.3486684 27.88175,24.002 C28.1157512,23.6553316 28.2847495,23.3346681 28.38875,23.04 C28.4927505,22.7453319 28.54475,22.4420016 28.54475,22.13 C28.54475,21.3326627 28.2934192,20.6913358 27.79075,20.206 C27.2880808,19.7206642 26.5947544,19.478 25.71075,19.478 C24.8267456,19.478 24.1334192,19.7293308 23.63075,20.232 C23.1280808,20.7346692 22.87675,21.4539953 22.87675,22.39 L19.60075,22.39 C19.60075,21.5059956 19.7394153,20.7043369 20.01675,19.985 C20.2940847,19.2656631 20.6970807,18.6546692 21.22575,18.152 C21.7544193,17.6493308 22.3957462,17.2593347 23.14975,16.982 C23.9037538,16.7046653 24.7574119,16.566 25.71075,16.566 C26.6640881,16.566 27.5177462,16.700332 28.27175,16.969 C29.0257538,17.237668 29.6670807,17.6189975 30.19575,18.113 C30.7244193,18.6070025 31.1274153,19.1963299 31.40475,19.881 C31.6820847,20.5656701 31.82075,21.3153293 31.82075,22.13 C31.82075,23.1526718 31.49142,24.1579951 30.83275,25.146 C30.17408,26.1340049 29.1514236,27.2606603 27.76475,28.526 L23.68275,32.244 L31.82075,32.244 L31.82075,35 L19.60075,35 Z M26,0 C11.6407891,0 0,11.6408906 0,26 C0,40.3592109 11.6407891,52 26,52 C40.3591094,52 52,40.3592109 52,26 C51.98375,11.6472891 40.3528125,0.01625 26,0 Z M26,1.73326562 C39.4022891,1.73326562 50.2666328,12.5977109 50.2666328,26 C50.2511953,39.3958906 39.3958906,50.2511953 26,50.2666328 C12.5977109,50.2666328 1.73326563,39.4022891 1.73326563,26 C1.73326563,12.5977109 12.5977109,1.73326562 26,1.73326562 Z"/>
</svg>
