<svg xmlns="http://www.w3.org/2000/svg" width="52" height="52" viewBox="0 0 52 52">
  <defs>
    <linearGradient id="icon-number-3-a" x1="7.732%" x2="89.568%" y1="10.471%" y2="87.034%">
      <stop offset="0%" stop-color="#01C6DB"/>
      <stop offset="100%" stop-color="#662D90"/>
    </linearGradient>
  </defs>
  <path fill="url(#icon-number-3-a)" fill-rule="evenodd" d="M25.71075,35.234 C23.6654064,35.234 22.0794223,34.6836722 20.95275,33.583 C19.8260777,32.4823278 19.2454168,30.9180101 19.21075,28.89 L22.48675,28.89 C22.5214168,30.086006 22.807414,30.9569973 23.34475,31.503 C23.882086,32.0490027 24.6707448,32.322 25.71075,32.322 C26.785422,32.322 27.591414,32.0750025 28.12875,31.581 C28.666086,31.0869975 28.93475,30.4240042 28.93475,29.592 C28.93475,28.8466629 28.6790859,28.2313358 28.16775,27.746 C27.6564141,27.2606642 26.8980884,27.018 25.89275,27.018 L23.50075,27.018 L23.50075,24.262 L25.89275,24.262 C26.7247542,24.262 27.3747477,24.0453355 27.84275,23.612 C28.3107523,23.1786645 28.54475,22.6153368 28.54475,21.922 C28.54475,21.1939964 28.3064191,20.6046689 27.82975,20.154 C27.353081,19.7033311 26.6467547,19.478 25.71075,19.478 C23.977408,19.478 23.0327508,20.448657 22.87675,22.39 L19.60075,22.39 C19.6354168,20.5699909 20.1857447,19.1443385 21.25175,18.113 C22.3177553,17.0816615 23.8040738,16.566 25.71075,16.566 C26.7160884,16.566 27.6000795,16.6916654 28.36275,16.943 C29.1254205,17.1943346 29.7624141,17.5453311 30.27375,17.996 C30.7850859,18.4466689 31.1707487,18.9883302 31.43075,19.621 C31.6907513,20.2536698 31.82075,20.9513295 31.82075,21.714 C31.82075,22.5460042 31.6387518,23.2999966 31.27475,23.976 C30.9107482,24.6520034 30.3474205,25.1979979 29.58475,25.614 C30.4687544,26.0473355 31.1274145,26.6323296 31.56075,27.369 C31.9940855,28.1056704 32.21075,28.9246622 32.21075,29.826 C32.21075,30.6233373 32.0720847,31.3556633 31.79475,32.023 C31.5174153,32.6903367 31.1057527,33.2623309 30.55975,33.739 C30.0137473,34.2156691 29.337754,34.5839987 28.53175,34.844 C27.725746,35.1040013 26.785422,35.234 25.71075,35.234 Z M26,0 C11.6407891,0 0,11.6408906 0,26 C0,40.3592109 11.6407891,52 26,52 C40.3591094,52 52,40.3592109 52,26 C51.98375,11.6472891 40.3528125,0.01625 26,0 Z M26,1.73326562 C39.4022891,1.73326562 50.2666328,12.5977109 50.2666328,26 C50.2511953,39.3958906 39.3958906,50.2511953 26,50.2666328 C12.5977109,50.2666328 1.73326563,39.4022891 1.73326563,26 C1.73326563,12.5977109 12.5977109,1.73326562 26,1.73326562 Z"/>
</svg>
