<svg xmlns="http://www.w3.org/2000/svg" width="52" height="52" viewBox="0 0 52 52">
  <defs>
    <linearGradient id="icon-number-1-a" x1="7.732%" x2="89.568%" y1="10.471%" y2="87.034%">
      <stop offset="0%" stop-color="#01C6DB"/>
      <stop offset="100%" stop-color="#662D90"/>
    </linearGradient>
  </defs>
  <path fill="url(#icon-number-1-a)" fill-rule="evenodd" d="M21.55075,19.244 L25.19075,16.8 L28.31075,16.8 L28.31075,35 L25.19075,35 L25.19075,20.024 L21.55075,22.442 Z M26,0 C11.6407891,0 0,11.6408906 0,26 C0,40.3592109 11.6407891,52 26,52 C40.3591094,52 52,40.3592109 52,26 C51.98375,11.6472891 40.3528125,0.01625 26,0 Z M26,1.73326562 C39.4022891,1.73326562 50.2666328,12.5977109 50.2666328,26 C50.2511953,39.3958906 39.3958906,50.2511953 26,50.2666328 C12.5977109,50.2666328 1.73326563,39.4022891 1.73326563,26 C1.73326563,12.5977109 12.5977109,1.73326562 26,1.73326562 Z"/>
</svg>
